<svg width="1005" height="276" viewBox="0 0 1005 276" fill="none" xmlns="http://www.w3.org/2000/svg">
<path d="M239.882 138.466L0 275.419V1.51294L239.882 138.466Z" fill="white"/>
<path d="M386.229 3.61597V268.141H353.836V3.61597H386.229Z" fill="white"/>
<path d="M451.179 3.61597H489.842L580.752 223.192H583.886L674.796 3.61597H713.459V268.141H683.156V67.164H680.544L596.948 268.141H567.69L484.094 67.164H481.482V268.141H451.179V3.61597Z" fill="white"/>
<path d="M1004.11 135.878C1004.11 163.777 999.022 187.888 988.832 208.209C978.642 228.531 964.672 244.203 946.902 255.224C929.142 266.246 908.852 271.757 886.042 271.757C863.222 271.757 842.934 266.246 825.17 255.224C807.406 244.203 793.43 228.531 783.242 208.209C773.054 187.888 767.96 163.777 767.96 135.878C767.96 107.979 773.054 83.869 783.242 63.548C793.43 43.226 807.406 27.554 825.17 16.533C842.934 5.511 863.222 0 886.042 0C908.852 0 929.142 5.511 946.902 16.533C964.672 27.554 978.642 43.226 988.832 63.548C999.022 83.869 1004.11 107.979 1004.11 135.878ZM972.772 135.878C972.772 112.974 968.892 93.642 961.142 77.885C953.482 62.127 943.072 50.201 929.922 42.107C916.862 34.012 902.232 29.965 886.042 29.965C869.842 29.965 855.172 34.012 842.02 42.107C828.958 50.201 818.552 62.127 810.802 77.885C803.139 93.642 799.308 112.974 799.308 135.878C799.308 158.783 803.139 178.115 810.802 193.872C818.552 209.63 828.958 221.556 842.02 229.65C855.172 237.744 869.842 241.792 886.042 241.792C902.232 241.792 916.862 237.744 929.922 229.65C943.072 221.556 953.482 209.63 961.142 193.872C968.892 178.115 972.772 158.783 972.772 135.878Z" fill="white"/>
</svg>
