<svg width="1225" height="544" viewBox="0 0 1225 544" fill="none" xmlns="http://www.w3.org/2000/svg">
<path d="M387.01 276.744L147.128 413.697V139.791L387.01 276.744Z" fill="white"/>
<path d="M533.357 141.894V406.419H500.964V141.894H533.357Z" fill="white"/>
<path d="M598.307 141.894H636.97L727.88 361.47H731.014L821.924 141.894H860.587V406.419H830.284V205.442H827.672L744.076 406.419H714.818L631.222 205.442H628.61V406.419H598.307V141.894Z" fill="white"/>
<path d="M1151.24 274.156C1151.24 302.055 1146.15 326.166 1135.96 346.487C1125.77 366.809 1111.8 382.481 1094.03 393.502C1076.27 404.524 1055.98 410.035 1033.17 410.035C1010.35 410.035 990.062 404.524 972.298 393.502C954.534 382.481 940.558 366.809 930.37 346.487C920.182 326.166 915.088 302.055 915.088 274.156C915.088 246.257 920.182 222.147 930.37 201.826C940.558 181.504 954.534 165.832 972.298 154.811C990.062 143.789 1010.35 138.278 1033.17 138.278C1055.98 138.278 1076.27 143.789 1094.03 154.811C1111.8 165.832 1125.77 181.504 1135.96 201.826C1146.15 222.147 1151.24 246.257 1151.24 274.156ZM1119.9 274.156C1119.9 251.252 1116.02 231.92 1108.27 216.163C1100.61 200.405 1090.2 188.479 1077.05 180.385C1063.99 172.29 1049.36 168.243 1033.17 168.243C1016.97 168.243 1002.3 172.29 989.148 180.385C976.086 188.479 965.68 200.405 957.93 216.163C950.267 231.92 946.436 251.252 946.436 274.156C946.436 297.061 950.267 316.393 957.93 332.15C965.68 347.908 976.086 359.834 989.148 367.928C1002.3 376.022 1016.97 380.07 1033.17 380.07C1049.36 380.07 1063.99 376.022 1077.05 367.928C1090.2 359.834 1100.61 347.908 1108.27 332.15C1116.02 316.393 1119.9 297.061 1119.9 274.156Z" fill="white"/>
</svg>
